name rise34.3697peak60.0498fall86.3158.mot
datacolumns 19
datarows 20
range 6.03831300000000 6.06997500000000
endheader
time	ground_force1_vx	ground_force1_vy	ground_force1_vz	ground_force1_px	ground_force1_py	ground_force1_pz	ground_force2_vx	ground_force2_vy	ground_force2_vz	ground_force2_px	ground_force2_py	ground_force2_pz	ground_torque1_x	ground_torque1_y	ground_torque1_z	ground_torque2_x	ground_torque2_y	ground_torque2_z	
6.03831300000000	-49.45727000000000	836.33364700000004	53.37928400000000	0.22788400000000	0.00000000000000	0.08808400000000	-0.63918100000000	3.43846800000000	1.04411500000000	0.00000000000000	0.00000000000000	0.00000000000000	0.00000000000000	30.32228800000000	0.00000000000000	0.00000000000000	0.54780300000000	0.00000000000000	
6.03997400000000	-49.72716200000000	834.80009500000006	53.42265200000000	0.22697000000000	0.00000000000000	0.08808900000000	-1.01031900000000	6.70560100000000	1.75257100000000	0.00000000000000	0.00000000000000	0.00000000000000	0.00000000000000	30.25150100000000	0.00000000000000	0.00000000000000	0.91703800000000	0.00000000000000	
6.04164100000000	-50.00120500000000	833.12982299999999	53.44227500000000	0.22605200000000	0.00000000000000	0.08809100000000	-1.42607000000000	10.66416400000000	2.57101100000000	0.00000000000000	0.00000000000000	0.00000000000000	0.00000000000000	30.17236200000000	0.00000000000000	0.00000000000000	1.34346500000000	0.00000000000000	
6.04330700000000	-50.28008300000000	831.32186500000000	53.43752600000000	0.22513000000000	0.00000000000000	0.08809100000000	-1.87219700000000	15.27524300000000	3.47966400000000	0.00000000000000	0.00000000000000	0.00000000000000	0.00000000000000	30.08486900000000	0.00000000000000	0.00000000000000	1.81684400000000	0.00000000000000	
6.04497400000000	-50.56445600000000	829.37529199999994	53.40781600000000	0.22420300000000	0.00000000000000	0.08808600000000	-2.33113300000000	20.46978100000000	4.45243500000000	0.00000000000000	0.00000000000000	0.00000000000000	0.00000000000000	29.98903100000000	0.00000000000000	0.00000000000000	2.32369000000000	0.00000000000000	
6.04663900000000	-50.85495000000000	827.28920700000003	53.35259500000000	0.22327300000000	0.00000000000000	0.08807900000000	-2.78305400000000	26.15383000000000	5.45862400000000	0.42639100000000	0.00000000000000	-0.06883400000000	0.00000000000000	29.88487300000000	0.00000000000000	0.00000000000000	4.98410800000000	0.00000000000000	
6.04830900000000	-51.15215500000000	825.06274199999996	53.27135500000000	0.22234000000000	0.00000000000000	0.08806800000000	-3.20723500000000	32.21648800000000	6.46518100000000	0.42844900000000	0.00000000000000	-0.07000200000000	0.00000000000000	29.77242800000000	0.00000000000000	0.00000000000000	5.91877700000000	0.00000000000000	
6.04997800000000	-51.45661700000000	822.69505400000003	53.16363200000000	0.22140300000000	0.00000000000000	0.08805300000000	-3.58351100000000	38.53946400000000	7.43922700000000	0.43046300000000	0.00000000000000	-0.07104500000000	0.00000000000000	29.65174300000000	0.00000000000000	0.00000000000000	6.82993500000000	0.00000000000000	
6.05164600000000	-51.76883900000000	820.18532200000004	53.02900400000000	0.22046400000000	0.00000000000000	0.08803500000000	-3.89364200000000	45.00692100000000	8.35047000000000	0.43243900000000	0.00000000000000	-0.07198400000000	0.00000000000000	29.52287700000000	0.00000000000000	0.00000000000000	7.69028700000000	0.00000000000000	
6.05331300000000	-52.08927200000000	817.53274399999998	52.86709400000000	0.21952200000000	0.00000000000000	0.08801300000000	-4.12242700000000	51.51426800000000	9.17322400000000	0.43437900000000	0.00000000000000	-0.07283300000000	0.00000000000000	29.38589700000000	0.00000000000000	0.00000000000000	8.47657500000000	0.00000000000000	
6.05497300000000	-52.41831400000000	814.73653700000000	52.67757300000000	0.21857800000000	0.00000000000000	0.08798700000000	-4.25844300000000	57.97497600000000	9.88782500000000	0.43628800000000	0.00000000000000	-0.07360700000000	0.00000000000000	29.24088300000000	0.00000000000000	0.00000000000000	9.17090000000000	0.00000000000000	
6.05664400000000	-52.75630200000000	811.79593199999999	52.46015800000000	0.21763200000000	0.00000000000000	0.08795700000000	-4.29438000000000	64.32494100000000	10.48135500000000	0.43816700000000	0.00000000000000	-0.07431600000000	0.00000000000000	29.08792200000000	0.00000000000000	0.00000000000000	9.76143100000000	0.00000000000000	
6.05831300000000	-53.10351300000000	808.71017700000004	52.21461400000000	0.21668600000000	0.00000000000000	0.08792300000000	-4.22700100000000	70.52431700000000	10.94771500000000	0.44001900000000	0.00000000000000	-0.07496800000000	0.00000000000000	28.92711200000000	0.00000000000000	0.00000000000000	10.24250900000000	0.00000000000000	
6.05997400000000	-53.46015500000000	805.47852999999998	51.94075800000000	0.21573900000000	0.00000000000000	0.08788500000000	-4.05677300000000	76.55705600000000	11.28712300000000	0.44184600000000	0.00000000000000	-0.07557000000000	0.00000000000000	28.75855900000000	0.00000000000000	0.00000000000000	10.61423000000000	0.00000000000000	
6.06164800000000	-53.82636500000000	802.10026700000003	51.63845400000000	0.21479200000000	0.00000000000000	0.08784200000000	-3.78727200000000	82.42855800000000	11.50517900000000	0.44365000000000	0.00000000000000	-0.07612900000000	0.00000000000000	28.58237600000000	0.00000000000000	0.00000000000000	10.88162800000000	0.00000000000000	
6.06330800000000	-54.20220600000000	798.57467699999995	51.30761900000000	0.21384500000000	0.00000000000000	0.08779500000000	-3.42443100000000	88.16196600000001	11.61165800000000	0.44543300000000	0.00000000000000	-0.07664900000000	0.00000000000000	28.39868200000000	0.00000000000000	0.00000000000000	11.05359000000000	0.00000000000000	
6.06497700000000	-54.58766400000000	794.90106200000002	50.94822200000000	0.21290000000000	0.00000000000000	0.08774400000000	-2.97573800000000	93.79364099999999	11.61915800000000	0.44719600000000	0.00000000000000	-0.07713400000000	0.00000000000000	28.20760300000000	0.00000000000000	0.00000000000000	11.14163800000000	0.00000000000000	
6.06664900000000	-54.98264300000000	791.07874300000003	50.56028400000000	0.21195700000000	0.00000000000000	0.08768800000000	-2.44944500000000	99.36833300000001	11.54176300000000	0.44894000000000	0.00000000000000	-0.07758900000000	0.00000000000000	28.00927200000000	0.00000000000000	0.00000000000000	11.15870100000000	0.00000000000000	
6.06830900000000	-55.38696200000000	787.10705900000005	50.14387800000000	0.21101500000000	0.00000000000000	0.08762700000000	-1.85386400000000	104.93450900000001	11.39381100000000	0.45066600000000	0.00000000000000	-0.07801600000000	0.00000000000000	27.80382200000000	0.00000000000000	0.00000000000000	11.11798900000000	0.00000000000000	
6.06997500000000	-55.80035500000000	782.98536799999999	49.69913200000000	0.21007700000000	0.00000000000000	0.08756200000000	-1.19677700000000	110.54015500000000	11.18885200000000	0.45237500000000	0.00000000000000	-0.07841800000000	0.00000000000000	27.59139500000000	0.00000000000000	0.00000000000000	11.03202100000000	0.00000000000000	
